<svg width="215" height="41" viewBox="0 0 215 41" fill="none" xmlns="http://www.w3.org/2000/svg">
<path d="M0 40.3915H10.4328V24.1132C10.4328 21.679 11.7051 20.1577 13.8171 20.1577C16.0563 20.1577 17.2014 21.5015 17.2014 24.1639V40.3915H27.0998V24.1132C27.0998 21.6537 28.3466 20.1577 30.4586 20.1577C32.7233 20.1577 33.8684 21.4762 33.8684 24.1385V40.3915H44.3011V21.4255C44.3011 15.7205 40.5352 11.7904 35.0643 11.7904C30.7894 11.7904 27.3797 14.2498 26.4382 17.9518H26.2346C25.5476 14.0216 22.6722 11.7904 18.6263 11.7904C14.7077 11.7904 11.6542 14.0977 10.6363 17.6982H10.4328V12.3989H0V40.3915Z" fill="url(#paint0_linear_3_161)"/>
<path d="M57.8468 41C67.0327 41 72.6308 35.7514 72.6308 26.4205V26.3698C72.6308 17.1657 66.88 11.7904 57.8468 11.7904C48.839 11.7904 43.0882 17.2418 43.0882 26.3698V26.4205C43.0882 35.726 48.6354 41 57.8468 41ZM57.8722 33.2919C55.2259 33.2919 53.6737 30.8578 53.6737 26.4205V26.3698C53.6737 22.034 55.2767 19.4985 57.8468 19.4985C60.3914 19.4985 62.0453 22.034 62.0453 26.3698V26.4205C62.0453 30.8324 60.4677 33.2919 57.8722 33.2919Z" fill="url(#paint1_linear_3_161)"/>
<path d="M85.5657 41C94.7517 41 100.35 35.7514 100.35 26.4205V26.3698C100.35 17.1657 94.599 11.7904 85.5657 11.7904C76.5579 11.7904 70.8072 17.2418 70.8072 26.3698V26.4205C70.8072 35.726 76.3543 41 85.5657 41ZM85.5912 33.2919C82.9448 33.2919 81.3926 30.8578 81.3926 26.4205V26.3698C81.3926 22.034 82.9957 19.4985 85.5657 19.4985C88.1103 19.4985 89.7643 22.034 89.7643 26.3698V26.4205C89.7643 30.8324 88.1866 33.2919 85.5912 33.2919Z" fill="url(#paint2_linear_3_161)"/>
<path d="M113.285 41C122.471 41 128.069 35.7514 128.069 26.4205V26.3698C128.069 17.1657 122.318 11.7904 113.285 11.7904C104.277 11.7904 98.5261 17.2418 98.5261 26.3698V26.4205C98.5261 35.726 104.073 41 113.285 41ZM113.31 33.2919C110.664 33.2919 109.112 30.8578 109.112 26.4205V26.3698C109.112 22.034 110.715 19.4985 113.285 19.4985C115.829 19.4985 117.483 22.034 117.483 26.3698V26.4205C117.483 30.8324 115.906 33.2919 113.31 33.2919Z" fill="url(#paint3_linear_3_161)"/>
<path d="M132.963 40.3915H145.202L154.21 12.3989H143.294L139.35 31.9988H139.146L135.075 12.3989H123.828L132.963 40.3915Z" fill="url(#paint4_linear_3_161)"/>
<path d="M156.789 9.88868C159.715 9.88868 161.954 7.63203 161.954 4.94434C161.954 2.25665 159.715 0 156.789 0C153.862 0 151.623 2.25665 151.623 4.94434C151.623 7.63203 153.862 9.88868 156.789 9.88868ZM151.572 40.3915H162.005V12.3989H151.572V40.3915Z" fill="url(#paint5_linear_3_161)"/>
<path d="M175.525 41C185.296 41 188.502 35.295 189.342 31.6438L189.419 31.3142H180.131L180.105 31.3902C179.825 32.2016 178.477 33.8497 175.729 33.8497C172.879 33.8497 171.148 31.9481 171.047 28.7279H189.546V25.7866C189.546 17.2672 183.948 11.7904 175.194 11.7904C166.415 11.7904 160.868 17.2672 160.868 26.3698V26.3952C160.868 35.4978 166.415 41 175.525 41ZM175.474 18.9406C177.739 18.9406 179.317 20.3605 179.775 22.8454H171.174C171.632 20.3605 173.21 18.9406 175.474 18.9406Z" fill="url(#paint6_linear_3_161)"/>
<path d="M201.412 41C209.555 41 215 37.2474 215 31.2127V31.1874C215 26.953 212.277 24.5949 206.221 23.4793L201.132 22.5411C198.587 22.0594 197.875 21.5015 197.875 20.5127V20.4873C197.875 19.2956 199.122 18.5857 201.03 18.5857C203.27 18.5857 204.516 19.8281 204.669 21.1466L204.694 21.3748H214.16V21.1973C214.16 16.1008 209.733 11.7904 201.03 11.7904C192.862 11.7904 187.9 15.2641 187.9 21.0705V21.0959C187.9 25.4317 190.852 28.3983 196.425 29.4125L201.514 30.3507C203.829 30.7817 204.669 31.3649 204.669 32.3791V32.4045C204.669 33.5201 203.422 34.2047 201.412 34.2047C199.071 34.2047 197.799 33.2412 197.392 31.6184L197.341 31.4156H187.264L187.29 31.6438C187.926 37.222 192.557 41 201.412 41Z" fill="url(#paint7_linear_3_161)"/>
<defs>
<linearGradient id="paint0_linear_3_161" x1="107.5" y1="0" x2="107.5" y2="41" gradientUnits="userSpaceOnUse">
<stop stop-color="#FDFDFF"/>
<stop offset="1" stop-color="#A6ACC1"/>
</linearGradient>
<linearGradient id="paint1_linear_3_161" x1="107.5" y1="0" x2="107.5" y2="41" gradientUnits="userSpaceOnUse">
<stop stop-color="#FDFDFF"/>
<stop offset="1" stop-color="#A6ACC1"/>
</linearGradient>
<linearGradient id="paint2_linear_3_161" x1="107.5" y1="0" x2="107.5" y2="41" gradientUnits="userSpaceOnUse">
<stop stop-color="#FDFDFF"/>
<stop offset="1" stop-color="#A6ACC1"/>
</linearGradient>
<linearGradient id="paint3_linear_3_161" x1="107.5" y1="0" x2="107.5" y2="41" gradientUnits="userSpaceOnUse">
<stop stop-color="#FDFDFF"/>
<stop offset="1" stop-color="#A6ACC1"/>
</linearGradient>
<linearGradient id="paint4_linear_3_161" x1="107.5" y1="0" x2="107.5" y2="41" gradientUnits="userSpaceOnUse">
<stop stop-color="#FDFDFF"/>
<stop offset="1" stop-color="#A6ACC1"/>
</linearGradient>
<linearGradient id="paint5_linear_3_161" x1="107.5" y1="0" x2="107.5" y2="41" gradientUnits="userSpaceOnUse">
<stop stop-color="#FDFDFF"/>
<stop offset="1" stop-color="#A6ACC1"/>
</linearGradient>
<linearGradient id="paint6_linear_3_161" x1="107.5" y1="0" x2="107.5" y2="41" gradientUnits="userSpaceOnUse">
<stop stop-color="#FDFDFF"/>
<stop offset="1" stop-color="#A6ACC1"/>
</linearGradient>
<linearGradient id="paint7_linear_3_161" x1="107.5" y1="0" x2="107.5" y2="41" gradientUnits="userSpaceOnUse">
<stop stop-color="#FDFDFF"/>
<stop offset="1" stop-color="#A6ACC1"/>
</linearGradient>
</defs>
</svg>
